<svg id="apple" xmlns="http://www.w3.org/2000/svg" width="25.91" height="30.333" viewBox="0 0 25.91 30.333">
  <g id="Group_11" data-name="Group 11" transform="translate(12.452)">
    <g id="Group_10" data-name="Group 10" transform="translate(0)">
      <path id="Path_6" data-name="Path 6" d="M253.71,0A7.118,7.118,0,0,0,249.1,2.495a6.182,6.182,0,0,0-1.509,4.8,6.008,6.008,0,0,0,4.65-2.375A6.674,6.674,0,0,0,253.71,0Z" transform="translate(-247.522)" fill="#fff"/>
    </g>
  </g>
  <g id="Group_13" data-name="Group 13" transform="translate(0 7.1)">
    <g id="Group_12" data-name="Group 12" transform="translate(0)">
      <path id="Path_7" data-name="Path 7" d="M62.368,122.917a7.679,7.679,0,0,0-5.8-3.077c-2.721,0-3.871,1.3-5.761,1.3-1.949,0-3.43-1.3-5.782-1.3a7.868,7.868,0,0,0-6.332,3.828c-2.193,3.4-1.818,9.8,1.737,15.243,1.272,1.949,2.971,4.141,5.193,4.159,1.977.019,2.535-1.268,5.214-1.282s3.187,1.3,5.16,1.278c2.224-.017,4.015-2.446,5.287-4.395A21.856,21.856,0,0,0,63.246,135,6.688,6.688,0,0,1,62.368,122.917Z" transform="translate(-37.336 -119.84)" fill="#fff"/>
    </g>
  </g>
</svg>
