<svg xmlns="http://www.w3.org/2000/svg" width="22.984" height="26.908" viewBox="0 0 22.984 26.908">
  <g id="apple" transform="translate(-37.336)">
    <g id="Group_11" data-name="Group 11" transform="translate(48.382)">
      <g id="Group_10" data-name="Group 10" transform="translate(0)">
        <path id="Path_6" data-name="Path 6" d="M253.011,0a6.314,6.314,0,0,0-4.088,2.213,5.484,5.484,0,0,0-1.339,4.262,5.329,5.329,0,0,0,4.125-2.107A5.92,5.92,0,0,0,253.011,0Z" transform="translate(-247.522)" fill="#fff"/>
      </g>
    </g>
    <g id="Group_13" data-name="Group 13" transform="translate(37.336 6.298)">
      <g id="Group_12" data-name="Group 12" transform="translate(0)">
        <path id="Path_7" data-name="Path 7" d="M59.541,122.569A6.812,6.812,0,0,0,54.4,119.84c-2.413,0-3.434,1.155-5.111,1.155-1.729,0-3.042-1.152-5.129-1.152a6.979,6.979,0,0,0-5.617,3.4c-1.946,3.017-1.613,8.69,1.54,13.521,1.128,1.729,2.635,3.673,4.606,3.69,1.754.017,2.249-1.125,4.625-1.137s2.827,1.152,4.578,1.134c1.973-.015,3.562-2.169,4.69-3.9a19.389,19.389,0,0,0,1.737-3.263A5.932,5.932,0,0,1,59.541,122.569Z" transform="translate(-37.336 -119.84)" fill="#fff"/>
      </g>
    </g>
  </g>
</svg>
