<svg xmlns="http://www.w3.org/2000/svg" width="28.363" height="28.363" viewBox="0 0 28.363 28.363">
  <path id="Icon_material-language" data-name="Icon material-language" d="M17.5,3.333A14.181,14.181,0,1,0,31.7,17.515,14.175,14.175,0,0,0,17.5,3.333Zm9.828,8.509H23.145a22.193,22.193,0,0,0-1.957-5.049,11.387,11.387,0,0,1,6.141,5.049ZM17.515,6.226a19.977,19.977,0,0,1,2.709,5.616H14.806A19.977,19.977,0,0,1,17.515,6.226ZM6.538,20.351a11.093,11.093,0,0,1,0-5.673h4.793a23.421,23.421,0,0,0-.2,2.836,23.421,23.421,0,0,0,.2,2.836ZM7.7,23.187h4.184a22.193,22.193,0,0,0,1.957,5.049A11.326,11.326,0,0,1,7.7,23.187Zm4.184-11.345H7.7a11.326,11.326,0,0,1,6.141-5.049,22.193,22.193,0,0,0-1.957,5.049ZM17.515,28.8a19.977,19.977,0,0,1-2.709-5.616h5.417A19.977,19.977,0,0,1,17.515,28.8Zm3.318-8.452H14.2a20.865,20.865,0,0,1-.227-2.836,20.684,20.684,0,0,1,.227-2.836h6.637a20.684,20.684,0,0,1,.227,2.836,20.865,20.865,0,0,1-.227,2.836Zm.355,7.885a22.193,22.193,0,0,0,1.957-5.049h4.184a11.387,11.387,0,0,1-6.141,5.049Zm2.51-7.885a23.421,23.421,0,0,0,.2-2.836,23.421,23.421,0,0,0-.2-2.836h4.793a11.093,11.093,0,0,1,0,5.673H23.7Z" transform="translate(-3.333 -3.333)" fill="#fff"/>
</svg>
