<svg xmlns="http://www.w3.org/2000/svg" width="26.728" height="28.511" viewBox="0 0 26.728 28.511">
  <g id="google-play" transform="translate(0)">
    <g id="Group_3" data-name="Group 3" transform="translate(1.798 0)">
      <g id="Group_2" data-name="Group 2" transform="translate(0 0)">
        <path id="Path_2" data-name="Path 2" d="M51.835.456A3.62,3.62,0,0,0,48.3.465l12.99,11.983,4.364-4.364Z" transform="translate(-48.302 0)" fill="#fff"/>
      </g>
    </g>
    <g id="Group_5" data-name="Group 5" transform="translate(0 1.691)">
      <g id="Group_4" data-name="Group 4" transform="translate(0)">
        <path id="Path_3" data-name="Path 3" d="M16.513,30.365a3.323,3.323,0,0,0-.5,1.741V53.748a3.334,3.334,0,0,0,.465,1.7L29.542,42.383Z" transform="translate(-16.014 -30.365)" fill="#fff"/>
      </g>
    </g>
    <g id="Group_7" data-name="Group 7" transform="translate(16.097 8.98)">
      <g id="Group_6" data-name="Group 6">
        <path id="Path_4" data-name="Path 4" d="M313.942,163.574l-4.162-2.3-4.677,4.676,5.732,5.287,3.109-1.716a3.367,3.367,0,0,0,0-5.95Z" transform="translate(-305.102 -161.277)" fill="#fff"/>
      </g>
    </g>
    <g id="Group_9" data-name="Group 9" transform="translate(1.739 14.917)">
      <g id="Group_8" data-name="Group 8" transform="translate(0)">
        <path id="Path_5" data-name="Path 5" d="M60.344,267.9,47.246,281a3.612,3.612,0,0,0,3.592.034l14.855-8.2Z" transform="translate(-47.246 -267.901)" fill="#fff"/>
      </g>
    </g>
  </g>
</svg>
