<svg xmlns="http://www.w3.org/2000/svg" width="22.878" height="24.404" viewBox="0 0 22.878 24.404">
  <g id="google-play" transform="translate(-16.014 0)">
    <g id="Group_3" data-name="Group 3" transform="translate(17.553 0)">
      <g id="Group_2" data-name="Group 2" transform="translate(0 0)">
        <path id="Path_2" data-name="Path 2" d="M51.326.391A3.1,3.1,0,0,0,48.3.4L59.421,10.655,63.156,6.92Z" transform="translate(-48.302 0)" fill="#fff"/>
      </g>
    </g>
    <g id="Group_5" data-name="Group 5" transform="translate(16.014 1.448)">
      <g id="Group_4" data-name="Group 4" transform="translate(0)">
        <path id="Path_3" data-name="Path 3" d="M16.441,30.365a2.844,2.844,0,0,0-.427,1.49V50.38a2.853,2.853,0,0,0,.4,1.453L27.593,40.652Z" transform="translate(-16.014 -30.365)" fill="#fff"/>
      </g>
    </g>
    <g id="Group_7" data-name="Group 7" transform="translate(29.792 7.687)">
      <g id="Group_6" data-name="Group 6">
        <path id="Path_4" data-name="Path 4" d="M312.668,163.243l-3.563-1.966-4,4,4.906,4.525,2.661-1.469a2.882,2.882,0,0,0,0-5.093Z" transform="translate(-305.102 -161.277)" fill="#fff"/>
      </g>
    </g>
    <g id="Group_9" data-name="Group 9" transform="translate(17.503 12.769)">
      <g id="Group_8" data-name="Group 8" transform="translate(0)">
        <path id="Path_5" data-name="Path 5" d="M58.458,267.9,47.246,279.113a3.092,3.092,0,0,0,3.075.029l12.715-7.017Z" transform="translate(-47.246 -267.901)" fill="#fff"/>
      </g>
    </g>
  </g>
</svg>
