<svg xmlns="http://www.w3.org/2000/svg" width="198" height="167.676" viewBox="0 0 198 167.676">
  <g id="Group_46" data-name="Group 46" transform="translate(-733 -1785.324)">
    <g id="download" transform="translate(797.341 1782.324)">
      <path id="Path_156" data-name="Path 156" d="M28.96,46.822a2.159,2.159,0,0,1-1.538-.638L13.638,32.4a2.175,2.175,0,0,1,1.538-3.714h6.529V15.627A3.632,3.632,0,0,1,25.333,12h7.255a3.632,3.632,0,0,1,3.627,3.627V28.686h6.529A2.175,2.175,0,0,1,44.282,32.4L30.5,46.184A2.159,2.159,0,0,1,28.96,46.822Z" transform="translate(24.724 17.117)"/>
      <path id="Path_157" data-name="Path 157" d="M60.939,3H8.706A8.731,8.731,0,0,0,0,11.706V46.528a8.731,8.731,0,0,0,8.706,8.706H35.9l-1.625-1.625a7.738,7.738,0,0,1-2.205-4.179H8.706a2.91,2.91,0,0,1-2.9-2.9V11.706a2.91,2.91,0,0,1,2.9-2.9H60.939a2.91,2.91,0,0,1,2.9,2.9V25.925a9.56,9.56,0,0,1,2.9,6.819V40h.725a7.741,7.741,0,0,1,2.176.319V11.706A8.731,8.731,0,0,0,60.939,3Z" transform="translate(0 0)"/>
      <path id="Path_158" data-name="Path 158" d="M20.088,8H2.676A2.177,2.177,0,0,0,.5,10.176V29.038a2.177,2.177,0,0,0,2.176,2.176H20.088a7.987,7.987,0,0,0,7.98-7.98V15.98A7.987,7.987,0,0,0,20.088,8ZM16.46,25.411a5.8,5.8,0,1,1,5.8-5.8A5.8,5.8,0,0,1,16.46,25.411Z" transform="translate(0.951 9.509)"/>
    </g>
    <text id="Deposit" transform="translate(832 1906)" font-size="20" font-family="ProximaSoft-Bold, Proxima Soft" font-weight="700"><tspan x="-34" y="0">Deposit</tspan></text>
    <text id="_2" data-name="2" transform="translate(832 1876)" font-size="20" font-family="ProximaSoft-Bold, Proxima Soft" font-weight="700"><tspan x="-5" y="0">2</tspan></text>
    <text id="Deposit_your_funds_securely_through_our_supported_options" data-name="Deposit your funds securely
through our supported options" transform="translate(832 1932)" fill="#707070" font-size="15" font-family="ProximaSoft-Light, Proxima Soft" font-weight="300"><tspan x="-90" y="0">Deposit your funds securely</tspan><tspan x="-98" y="18">through our supported options</tspan></text>
  </g>
</svg>
