<svg xmlns="http://www.w3.org/2000/svg" xmlns:xlink="http://www.w3.org/1999/xlink" width="182" height="170.924" viewBox="0 0 182 170.924">
  <defs>
    <clipPath id="clip-path">
      <path id="path654" d="M0-682.665H67.437v67.437H0Z" transform="translate(0 682.665)"/>
    </clipPath>
  </defs>
  <g id="Group_45" data-name="Group 45" transform="translate(-438 -1782.076)">
    <g id="g648" transform="translate(494.83 2464.741)">
      <g id="g650" transform="translate(0 -682.665)">
        <g id="g652" clip-path="url(#clip-path)">
          <g id="g658" transform="translate(7.903 2.634)">
            <path id="path660" d="M-235.517,0l-25.816,10.718v13.03a41.5,41.5,0,0,0,25.816,38.42A41.5,41.5,0,0,0-209.7,23.748V10.718Z" transform="translate(261.333)" fill="none" stroke="#000" stroke-linecap="round" stroke-linejoin="round" stroke-width="6"/>
          </g>
          <g id="g662" transform="translate(23.445 25.802)">
            <path id="path664" d="M0-53.125l7.362,7.362L20.547-58.948" transform="translate(0 58.948)" fill="none" stroke="#000" stroke-linecap="round" stroke-linejoin="round" stroke-width="6"/>
          </g>
        </g>
      </g>
    </g>
    <text id="Verify" transform="translate(529 1906)" font-size="20" font-family="ProximaSoft-Bold, Proxima Soft" font-weight="700"><tspan x="-26" y="0">Verify</tspan></text>
    <text id="_2" data-name="2" transform="translate(529 1876)" font-size="20" font-family="ProximaSoft-Bold, Proxima Soft" font-weight="700"><tspan x="-5" y="0">2</tspan></text>
    <text id="Verify_your_own_identity_with_one_of_our_trusted_partners" data-name="Verify your own identity with
one of our trusted partners" transform="translate(529 1932)" fill="#707070" font-size="15" font-family="ProximaSoft-Light, Proxima Soft" font-weight="300"><tspan x="-90" y="0">Verify your own identity with</tspan><tspan x="-86" y="18">one of our trusted partners</tspan></text>
  </g>
</svg>
