<svg xmlns="http://www.w3.org/2000/svg" width="144" height="171" viewBox="0 0 144 171">
  <g id="Group_44" data-name="Group 44" transform="translate(-154 -1782)">
    <g id="login" transform="translate(192.244 1782)">
      <g id="Group_43" data-name="Group 43" transform="translate(0)">
        <g id="Group_42" data-name="Group 42">
          <path id="Path_154" data-name="Path 154" d="M17.34,62.238H8a2.679,2.679,0,0,1-2.11-1,2.756,2.756,0,0,1-.559-2.31A29.137,29.137,0,0,1,33.084,35.852c.223.008.447.014.672.014s.453-.006.678-.014a28.884,28.884,0,0,1,9.525,1.835,2.637,2.637,0,0,0,1.854-4.938q-.655-.246-1.318-.463a17.933,17.933,0,1,0-21.467.009A34.294,34.294,0,0,0,.171,57.85,8.012,8.012,0,0,0,8,67.512H17.34a2.637,2.637,0,1,0,0-5.274Zm3.758-44.3A12.659,12.659,0,1,1,34.373,30.576c-.205,0-.411-.007-.616-.007s-.412,0-.618.007A12.674,12.674,0,0,1,21.1,17.933Z" transform="translate(0)"/>
          <path id="Path_155" data-name="Path 155" d="M192.241,317.168A7.106,7.106,0,0,0,185.757,313h-8.242a6.982,6.982,0,0,0-6.6,4.458c-.139.361-.308.815-.485,1.344H153.167a2.638,2.638,0,0,0-1.892.8l-4.53,4.666a2.637,2.637,0,0,0,.011,3.685l4.615,4.7a2.637,2.637,0,0,0,1.881.789h8.571a2.637,2.637,0,0,0,0-5.274h-7.465l-2.034-2.07,1.959-2.018h18.13a2.637,2.637,0,0,0,2.562-2.01,21.792,21.792,0,0,1,.868-2.716,1.729,1.729,0,0,1,1.68-1.076h8.229a1.8,1.8,0,0,1,1.675,1.046,17.031,17.031,0,0,1,1.56,6.723,17.535,17.535,0,0,1-1.548,6.843,1.8,1.8,0,0,1-1.656,1.08h-8.328a1.877,1.877,0,0,1-1.7-1.168,17.531,17.531,0,0,1-.817-2.61,2.637,2.637,0,1,0-5.129,1.228,22.7,22.7,0,0,0,1.071,3.394,7.114,7.114,0,0,0,6.57,4.431h8.34a7.071,7.071,0,0,0,6.485-4.246,22.829,22.829,0,0,0,1.987-8.963A22.327,22.327,0,0,0,192.241,317.168Z" transform="translate(-126.748 -271.728)"/>
          <circle id="Ellipse_31" data-name="Ellipse 31" cx="2.5" cy="2.5" r="2.5" transform="translate(54 52)"/>
        </g>
      </g>
    </g>
    <text id="Register" transform="translate(226 1906)" font-size="20" font-family="ProximaSoft-Bold, Proxima Soft" font-weight="700"><tspan x="-37" y="0">Register</tspan></text>
    <text id="_1" data-name="1" transform="translate(226 1876)" font-size="20" font-family="ProximaSoft-Bold, Proxima Soft" font-weight="700"><tspan x="-4" y="0">1</tspan></text>
    <text id="Sign_up_to_create_your_own_BitOasis_account" data-name="Sign up to create your
own BitOasis account" transform="translate(226 1932)" fill="#707070" font-size="15" font-family="ProximaSoft-Light, Proxima Soft" font-weight="300"><tspan x="-71" y="0">Sign up to create your</tspan><tspan x="-69" y="18">own BitOasis account</tspan></text>
  </g>
</svg>
