<svg xmlns="http://www.w3.org/2000/svg" width="234" height="165.057" viewBox="0 0 234 165.057">
  <g id="Group_47" data-name="Group 47" transform="translate(-1014 -1787.943)">
    <path id="XMLID_106_" d="M42.909,34.242V26.924c0-3.5-2.452-6.649-6.9-8.875a33.281,33.281,0,0,0-14.551-3.045A33.281,33.281,0,0,0,6.9,18.05C2.452,20.275,0,23.427,0,26.924V55.529c0,3.5,2.452,6.649,6.9,8.875a33.281,33.281,0,0,0,14.551,3.044A35.879,35.879,0,0,0,33,65.652a16.688,16.688,0,1,0,9.91-31.41Zm-38.14,9.85A18.9,18.9,0,0,0,6.9,45.334a33.281,33.281,0,0,0,14.551,3.045q1.291,0,2.563-.082a16.719,16.719,0,0,0-.024,4.759c-.838.06-1.686.09-2.54.09-9.55,0-16.686-3.775-16.686-7.151Zm20.795-.72a35.224,35.224,0,0,1-4.108.238c-9.55,0-16.686-3.775-16.686-7.151v-1.9A18.88,18.88,0,0,0,6.9,35.8a33.279,33.279,0,0,0,14.551,3.045,38.194,38.194,0,0,0,8.406-.911A16.794,16.794,0,0,0,25.563,43.372Zm-4.108-23.6c9.55,0,16.686,3.775,16.686,7.151S31,34.075,21.454,34.075,4.768,30.3,4.768,26.924,11.9,19.773,21.454,19.773ZM4.768,55.529v-1.9A18.9,18.9,0,0,0,6.9,54.869a33.281,33.281,0,0,0,14.551,3.045c1.316,0,2.623-.065,3.906-.19a16.746,16.746,0,0,0,2.852,4.29,33.977,33.977,0,0,1-6.758.667C11.9,62.68,4.768,58.9,4.768,55.529ZM40.525,62.68a11.92,11.92,0,0,1-.055-23.84l.055,0,.055,0a11.92,11.92,0,0,1-.055,23.84Z" transform="translate(1102.06 1772.938)"/>
    <text id="Buy" transform="translate(1131 1906)" font-size="20" font-family="ProximaSoft-Bold, Proxima Soft" font-weight="700"><tspan x="-17" y="0">Buy</tspan></text>
    <text id="_3" data-name="3" transform="translate(1131 1876)" font-size="20" font-family="ProximaSoft-Bold, Proxima Soft" font-weight="700"><tspan x="-5" y="0">3</tspan></text>
    <text id="Buy_and_sell_more_than_60_cryptocurrencies_anytime_anywhere" data-name="Buy and sell more than 60 
cryptocurrencies anytime, anywhere" transform="translate(1131 1932)" fill="#707070" font-size="15" font-family="ProximaSoft-Light, Proxima Soft" font-weight="300"><tspan x="-86" y="0">Buy and sell more than 60 </tspan><tspan x="-116" y="18">cryptocurrencies anytime, anywhere</tspan></text>
  </g>
</svg>
