<svg xmlns="http://www.w3.org/2000/svg" width="24.656" height="24.656" viewBox="0 0 24.656 24.656">
  <path id="Icon_awesome-linkedin-in" data-name="Icon awesome-linkedin-in" d="M5.519,24.656H.407V8.2H5.519ZM2.96,5.95a2.974,2.974,0,1,1,2.96-2.988A2.985,2.985,0,0,1,2.96,5.95Zm21.69,18.707h-5.1V16.643c0-1.91-.039-4.359-2.658-4.359-2.658,0-3.065,2.075-3.065,4.221v8.151H8.721V8.2h4.9v2.245H13.7a5.371,5.371,0,0,1,4.837-2.658c5.173,0,6.124,3.407,6.124,7.832v9.042Z" transform="translate(0 -0.001)"/>
</svg>
