<svg xmlns="http://www.w3.org/2000/svg" width="29.789" height="24.194" viewBox="0 0 29.789 24.194">
  <path id="Icon_awesome-twitter" data-name="Icon awesome-twitter" d="M26.727,9.786c.019.265.019.529.019.794,0,8.071-6.143,17.371-17.371,17.371A17.253,17.253,0,0,1,0,25.21a12.63,12.63,0,0,0,1.474.076,12.227,12.227,0,0,0,7.58-2.608,6.116,6.116,0,0,1-5.708-4.234,7.7,7.7,0,0,0,1.153.094,6.457,6.457,0,0,0,1.607-.208,6.106,6.106,0,0,1-4.9-5.992v-.076a6.149,6.149,0,0,0,2.76.775,6.114,6.114,0,0,1-1.89-8.165A17.354,17.354,0,0,0,14.668,11.26a6.892,6.892,0,0,1-.151-1.4A6.111,6.111,0,0,1,25.082,5.684,12.02,12.02,0,0,0,28.957,4.21a6.089,6.089,0,0,1-2.684,3.364,12.239,12.239,0,0,0,3.516-.945,13.124,13.124,0,0,1-3.062,3.157Z" transform="translate(0 -3.756)"/>
</svg>
